%FSLAX66Y66*%
%MOMM*%
G01*
G04 Union1_1.Face2182_1*
%LPD*%
G36*
X-5345442Y-14703573D02*
X-5345442Y-16949867D01*
X-7232069Y-16949867D01*
X-7232069Y-14928750D01*
X-7232069Y-13269494D01*
X-7232069Y-11877685D01*
X-7232069Y-10673021D01*
X-7860944Y-10673021D01*
X-7860944Y-11787330D01*
X-7860944Y-13123672D01*
X-7860944Y-14813195D01*
X-7860944Y-16949867D01*
X-9747571Y-16949867D01*
X-9747571Y-14764109D01*
X-9747571Y-13085233D01*
X-9747571Y-11796316D01*
X-9747571Y-10804894D01*
X-9747571Y-10044145D01*
X-9118696Y-10044145D01*
X-9118696Y-10759847D01*
X-9118696Y-11679712D01*
X-9118696Y-12859510D01*
X-9118696Y-14375003D01*
X-9118696Y-16320991D01*
X-8489820Y-16320991D01*
X-8489820Y-14074035D01*
X-8489820Y-12385782D01*
X-8489820Y-11094630D01*
X-8489820Y-10044145D01*
X-7644838Y-10044145D01*
X-6603193Y-10044145D01*
X-6603193Y-11318588D01*
X-6603193Y-12737729D01*
X-6603193Y-14392512D01*
X-6603193Y-16320991D01*
X-5974318Y-16320991D01*
X-5974318Y-13884733D01*
X-5974318Y-11812957D01*
X-5974318Y-10044145D01*
X-4087691Y-10044145D01*
X-4087691Y-12212849D01*
X-4087691Y-14263930D01*
X-4087691Y-16320991D01*
X-3458816Y-16320991D01*
X-3458816Y-14773306D01*
X-3458816Y-13276026D01*
X-3458816Y-11710084D01*
X-3458816Y-10044145D01*
X-1572189Y-10044145D01*
X-1572189Y-11345815D01*
X-1572189Y-12388344D01*
X-1572189Y-13345726D01*
X-1572189Y-14279962D01*
X-1572189Y-15241782D01*
X-1572189Y-16320991D01*
X-0943313Y-16320991D01*
X-0943313Y-15212146D01*
X-0943313Y-14316066D01*
X-0943313Y-13497006D01*
X-0314438Y-13497006D01*
X-0314438Y-14125882D01*
X-0314438Y-14842562D01*
X-0314438Y-15748922D01*
X-0314438Y-16949867D01*
X-2201064Y-16949867D01*
X-2201064Y-15605010D01*
X-2201064Y-14398652D01*
X-2201064Y-13218674D01*
X-2201064Y-12003114D01*
X-2201064Y-10673021D01*
X-2829940Y-10673021D01*
X-2829940Y-12291584D01*
X-2829940Y-13802635D01*
X-2829940Y-15319948D01*
X-2829940Y-16949867D01*
X-4716567Y-16949867D01*
X-4716567Y-14864965D01*
X-4716567Y-12769159D01*
X-4716567Y-10673021D01*
X-5345442Y-10673021D01*
X-5345442Y-12607666D01*
X-5345442Y-14703573D01*
G37*
G04 Union1_1.Face2182_2*
%LPD*%
G36*
X-4087691Y-5697639D02*
X-4087691Y-7754456D01*
X-4087691Y-9842038D01*
X-5974318Y-9842038D01*
X-5974318Y-8105105D01*
X-5974318Y-6078395D01*
X-5974318Y-3565191D01*
X-6603193Y-3565191D01*
X-6603193Y-5493671D01*
X-6603193Y-7148454D01*
X-6603193Y-8567595D01*
X-6603193Y-9842038D01*
X-7644838Y-9842038D01*
X-8489820Y-9842038D01*
X-8489820Y-8791552D01*
X-8489820Y-7500401D01*
X-8489820Y-5812148D01*
X-8489820Y-3565191D01*
X-9118696Y-3565191D01*
X-9118696Y-5511180D01*
X-9118696Y-7026673D01*
X-9118696Y-8206471D01*
X-9118696Y-9126335D01*
X-9118696Y-9842038D01*
X-9747571Y-9842038D01*
X-9747571Y-9081288D01*
X-9747571Y-8089867D01*
X-9747571Y-6800949D01*
X-9747571Y-5122074D01*
X-9747571Y-2936316D01*
X-7860944Y-2936316D01*
X-7860944Y-5072988D01*
X-7860944Y-6762511D01*
X-7860944Y-8098853D01*
X-7860944Y-9213162D01*
X-7232069Y-9213162D01*
X-7232069Y-8005533D01*
X-7232069Y-6609176D01*
X-7232069Y-4946807D01*
X-7232069Y-2936316D01*
X-5345442Y-2936316D01*
X-5345442Y-5239330D01*
X-5345442Y-7346435D01*
X-5345442Y-9213162D01*
X-4716567Y-9213162D01*
X-4716567Y-7213977D01*
X-4716567Y-5132707D01*
X-4716567Y-2936316D01*
X-2829940Y-2936316D01*
X-2829940Y-4595718D01*
X-2829940Y-6061609D01*
X-2829940Y-7523805D01*
X-2829940Y-9213162D01*
X-2201064Y-9213162D01*
X-2201064Y-7518238D01*
X-2201064Y-6077153D01*
X-2201064Y-4631838D01*
X-2201064Y-2936316D01*
X-0314438Y-2936316D01*
X-0314438Y-4560381D01*
X-0314438Y-5760301D01*
X-0943313Y-5760301D01*
X-0943313Y-4798933D01*
X-0943313Y-3565191D01*
X-1572189Y-3565191D01*
X-1572189Y-4872409D01*
X-1572189Y-5975109D01*
X-1572189Y-7064317D01*
X-1572189Y-8339724D01*
X-1572189Y-9842038D01*
X-3458816Y-9842038D01*
X-3458816Y-8191373D01*
X-3458816Y-6670764D01*
X-3458816Y-5164979D01*
X-3458816Y-3565191D01*
X-4087691Y-3565191D01*
X-4087691Y-5697639D01*
G37*
G04 Union1_1.Face2_2*
%LPD*%
G36*
X-0314438Y-5760301D02*
X0649191Y-5760301D01*
X1886627Y-5760301D01*
X1886627Y-6389177D01*
X0649250Y-6389177D01*
X-0314438Y-6389177D01*
X-0314438Y-5760301D01*
G37*
G04 Union1_1.Face2_3*
%LPD*%
G36*
X0644722Y-14125882D02*
X0104813Y-14125882D01*
X0104813Y-13497006D01*
X0644729Y-13497006D01*
X1330288Y-13497006D01*
X2201064Y-13497006D01*
X2201064Y-14125882D01*
X1330203Y-14125882D01*
X0644722Y-14125882D01*
G37*
G04 Union1_1.Face4194*
%LPD*%
G36*
X-0943313Y-5760301D02*
X-0314438Y-5760301D01*
X-0314438Y-6389177D01*
X-0943313Y-6389177D01*
X-0943313Y-5760301D01*
G37*
G04 Union1_1.Face2_4*
%LPD*%
G36*
X0000000Y-13497006D02*
X0000000Y-14125882D01*
X-0314438Y-14125882D01*
X-0314438Y-13497006D01*
X0000000Y-13497006D01*
G37*
G04 Union1_1.Face2_1*
%LPD*%
G36*
X-9118696Y-10044145D02*
X-9747571Y-10044145D01*
X-9747571Y-9842038D01*
X-9118696Y-9842038D01*
X-9118696Y-10044145D01*
G37*
G04 Union1_1.Face4261*
%LPD*%
G36*
X0000000Y-14125882D02*
X0000000Y-13497006D01*
X0104813Y-13497006D01*
X0104813Y-14125882D01*
X0000000Y-14125882D01*
G37*
M02*
